<?xml version="1.0" encoding="utf-8"?>
<!-- Generator: Adobe Illustrator 16.0.4, SVG Export Plug-In . SVG Version: 6.00 Build 0)  -->
<!DOCTYPE svg PUBLIC "-//W3C//DTD SVG 1.1//EN" "http://www.w3.org/Graphics/SVG/1.1/DTD/svg11.dtd">
<svg version="1.1" xmlns="http://www.w3.org/2000/svg" xmlns:xlink="http://www.w3.org/1999/xlink" x="0px" y="0px" width="25px"
	 height="17.99px" viewBox="0 0 25 17.99" enable-background="new 0 0 25 17.99" xml:space="preserve">
<g id="Layer_1">
	<rect x="3153.766" y="136.924" fill="#FFDD1B" width="1280" height="1765.807"/>
	<rect x="3993.766" y="347.223" fill="#232021" width="370" height="246.666"/>
	<rect x="1563.607" y="4501.207" fill="#E7E8E9" width="1280" height="900.091"/>
	<g>
		<text transform="matrix(1 0 0 1 2716.6797 4557.2119)" font-family="'FGrotesk-Regular'" font-size="21">Close </text>
	</g>
	<g>
		<text transform="matrix(1 0 0 1 2169.9971 4554.2114)" font-family="'FGrotesk-Regular'" font-size="21">( 1/22 )</text>
	</g>
	<text transform="matrix(1 0 0 1 1633.6792 4555.2114)" font-family="'FGrotesk-Regular'" font-size="21">Thumbnails </text>
	<rect x="1563.607" y="136.924" fill="#0175BB" width="1280" height="1765.807"/>
	<text transform="matrix(1 0 0 1 -247.793 192.8701)" font-family="'FGroteskBold-Regular'" font-size="21">Yosigo</text>
	<g>
		<text transform="matrix(1 0 0 1 817.0093 192.8701)"><tspan x="0" y="0" font-family="'FGrotesk-Regular'" font-size="21">Shop</tspan><tspan x="49.685" y="0" font-family="'FGroteskDemi-Regular'" font-size="21"> </tspan><tspan x="54.515" y="0" font-family="'ArialMT'" font-size="21">→</tspan></text>
	</g>
	<text transform="matrix(1 0 0 1 1221.5459 -155.1392)" font-family="'ArialMT'" font-size="60">→</text>
	<g>
	</g>
	<text transform="matrix(1 0 0 1 1633.6074 192.8701)" font-family="'FGroteskBold-Regular'" font-size="21">Yosigo</text>
	<g>
		<g>
			<text transform="matrix(1 0 0 1 2211.1064 1790.7373)"><tspan x="0" y="0" font-family="'FGrotesk-Regular'" font-size="21" text-decoration=" underline">info@yosigo.es</tspan><tspan x="0" y="25.2" font-family="'FGrotesk-Regular'" font-size="21">(+34) 673 810 329</tspan><tspan x="0" y="50.4" font-family="'FGrotesk-Regular'" font-size="21">Instagram · Facebook · Spotify</tspan><tspan x="0" y="75.6" font-family="'FGrotesk-Regular'" font-size="21">© All rights reserved</tspan></text>
		</g>
		<rect x="1563.607" y="1659.446" fill="none" width="1280" height="243.284"/>
	</g>
	<g>
		<text transform="matrix(1 0 0 1 2698.4087 192.8701)"><tspan x="0" y="0" font-family="'FGrotesk-Regular'" font-size="21">Shop</tspan><tspan x="49.685" y="0" font-family="'FGroteskDemi-Regular'" font-size="21"> </tspan><tspan x="54.515" y="0" font-family="'ArialMT'" font-size="21">→</tspan></text>
	</g>
	<g>
		<text transform="matrix(1 0 0 1 2114.7891 6580.25)" font-family="'FGrotesk-Regular'" font-size="11">Lorem ipsum dolor amet dolor amet.</text>
	</g>
	<g>
		<text transform="matrix(1 0 0 1 2716.6797 5757.1582)" font-family="'FGrotesk-Regular'" font-size="21">Close </text>
	</g>
	<g>
		<text transform="matrix(1 0 0 1 2169.9971 5754.1582)" font-family="'FGrotesk-Regular'" font-size="21">( 1/22 )</text>
	</g>
	<text transform="matrix(1 0 0 1 1633.6792 5755.1577)" font-family="'FGrotesk-Regular'" font-size="21">Thumbnails </text>
	<g>
		<text transform="matrix(1 0 0 1 2716.6797 6800.9492)" font-family="'FGrotesk-Regular'" font-size="21">Close </text>
	</g>
	<g>
		<text transform="matrix(1 0 0 1 2716.6797 3431.1775)" font-family="'FGrotesk-Regular'" font-size="21">Close </text>
	</g>
	<g>
		<text transform="matrix(1 0 0 1 2169.9971 3428.1772)" font-family="'FGrotesk-Regular'" font-size="21">( 1/22 )</text>
	</g>
	<text transform="matrix(1 0 0 1 1633.6792 3429.1782)" font-family="'FGrotesk-Regular'" font-size="21">Thumbnails </text>
	<g>
		<text transform="matrix(1 0 0 1 2716.6797 2252.2646)" font-family="'FGrotesk-Regular'" font-size="21">Close </text>
	</g>
	<g>
		<text transform="matrix(1 0 0 1 2169.9971 2252.2646)" font-family="'FGrotesk-Regular'" font-size="21">( 1/22 )</text>
	</g>
	<text transform="matrix(1 0 0 1 1633.6792 2252.2642)" font-family="'FGrotesk-Regular'" font-size="21">Thumbnails </text>
	<g>
		<rect x="2203.606" y="443.902" fill="none" width="570" height="376.074"/>
		<text transform="matrix(1 0 0 1 2203.6064 461.9819)"><tspan x="0" y="0" font-family="'FGrotesk-Regular'" font-size="21">Lorem fistrum ese pedazo de se calle ustée sexuarl está la </tspan><tspan x="0" y="25.2" font-family="'FGrotesk-Regular'" font-size="21">cosa muy malar te voy a borrar el cerito. Papaar papaar ese </tspan><tspan x="0" y="50.4" font-family="'FGrotesk-Regular'" font-size="21">pedazo de qué dise usteer fistro al ataquerl. No puedor la </tspan><tspan x="0" y="75.6" font-family="'FGrotesk-Regular'" font-size="21">caidita a gramenawer a peich condemor hasta luego Lucas </tspan><tspan x="0" y="100.8" font-family="'FGrotesk-Regular'" font-size="21">por la gloria de mi madre quietooor benemeritaar llevame al </tspan><tspan x="0" y="126" font-family="'FGrotesk-Regular'" font-size="21">sircoo no puedor.</tspan><tspan x="0" y="161.2" font-family="'FGrotesk-Regular'" font-size="21">Commissions and enquiries: </tspan><tspan x="0" y="186.4" font-family="'FGrotesk-Regular'" font-size="21" text-decoration=" underline">info@yosigo.es </tspan><tspan x="0" y="211.6" font-family="'FGrotesk-Regular'" font-size="21">(+34) 673 810 329</tspan><tspan x="0" y="246.8" font-family="'FGrotesk-Regular'" font-size="21">Instagram</tspan><tspan x="97.04" y="246.8" font-family="'FGroteskDemi-Regular'" font-size="21"> </tspan><tspan x="101.869" y="246.8" font-family="'ArialMT'" font-size="21">→ </tspan><tspan x="0" y="272" font-family="'FGrotesk-Regular'" font-size="21">Facebook</tspan><tspan x="92.021" y="272" font-family="'FGroteskDemi-Regular'" font-size="21"> </tspan><tspan x="96.851" y="272" font-family="'ArialMT'" font-size="21">→ </tspan><tspan x="0" y="297.2" font-family="'FGrotesk-Regular'" font-size="21">Spotify</tspan><tspan x="66.799" y="297.2" font-family="'FGroteskDemi-Regular'" font-size="21"> </tspan><tspan x="71.629" y="297.2" font-family="'ArialMT'" font-size="21">→</tspan><tspan x="0" y="350.4" font-family="'Wingdings-Regular'" font-size="36">J</tspan></text>
	</g>
	<g>
	</g>
	<text transform="matrix(1 0 0 1 3223.7666 192.8701)" font-family="'FGroteskBold-Regular'" font-size="21">Yosigo</text>
	<g>
		<text transform="matrix(1 0 0 1 3367.0085 620.8652)" font-family="'FGrotesk-Regular'" font-size="21">Palo Alto</text>
	</g>
	<g>
		<text transform="matrix(1 0 0 1 3723.4595 620.8652)" font-family="'FGrotesk-Regular'" font-size="21">Estrella Damm</text>
	</g>
	<g>
		<text transform="matrix(1 0 0 1 4121.1631 620.8652)" font-family="'FGrotesk-Regular'" font-size="21">Lost&amp;Found</text>
	</g>
	<g>
		<g>
			<text transform="matrix(1 0 0 1 3793.7666 1790.7373)"><tspan x="0" y="0" font-family="'FGrotesk-Regular'" font-size="21" text-decoration=" underline">info@yosigo.es</tspan><tspan x="0" y="25.2" font-family="'FGrotesk-Regular'" font-size="21">(+34) 673 810 329</tspan><tspan x="0" y="50.4" font-family="'FGrotesk-Regular'" font-size="21">Instagram · Facebook · Spotify</tspan><tspan x="0" y="75.6" font-family="'FGrotesk-Regular'" font-size="21">© All rights reserved</tspan></text>
		</g>
		<rect x="3153.766" y="1659.446" fill="none" width="1280" height="243.284"/>
	</g>
	<text transform="matrix(1 0 0 1 3793.7666 192.8701)"><tspan x="0" y="0" font-family="'FGrotesk-Regular'" font-size="21">Personal</tspan><tspan x="0" y="25.2" font-family="'FGrotesk-Regular'" font-size="21">Commercial</tspan><tspan x="0" y="50.4" font-family="'FGrotesk-Regular'" font-size="21">Exhibitions / Publications</tspan><tspan x="0" y="75.6" font-family="'FGrotesk-Regular'" font-size="21">Contact</tspan></text>
	<g>
		<text transform="matrix(1 0 0 1 4288.5679 192.8701)"><tspan x="0" y="0" font-family="'FGrotesk-Regular'" font-size="21">Shop</tspan><tspan x="49.685" y="0" font-family="'FGroteskDemi-Regular'" font-size="21"> </tspan><tspan x="54.515" y="0" font-family="'ArialMT'" font-size="21">→</tspan></text>
	</g>
	<rect x="3223.766" y="347.223" fill="#232021" width="370" height="246.666"/>
	<rect x="3608.766" y="347.223" fill="#232021" width="370" height="246.666"/>
	<g>
		<text transform="matrix(1 0 0 1 3334.7 924.5078)" font-family="'FGrotesk-Regular'" font-size="21">Van Van Market</text>
	</g>
	<g>
		<text transform="matrix(1 0 0 1 3724.3623 924.5078)" font-family="'FGrotesk-Regular'" font-size="21">Festival Cruïlla</text>
	</g>
	<g>
		<text transform="matrix(1 0 0 1 4105.6133 924.5078)" font-family="'FGrotesk-Regular'" font-size="21">Picnic Eletronic</text>
	</g>
	<rect x="3223.766" y="650.865" fill="#232021" width="370" height="246.667"/>
	<rect x="3608.766" y="650.865" fill="#232021" width="370" height="246.667"/>
	<rect x="3993.766" y="650.865" fill="#232021" width="370" height="246.667"/>
	<g>
		<text transform="matrix(1 0 0 1 3322.9194 1228.1509)" font-family="'FGrotesk-Regular'" font-size="21">Cerveza Alhambra</text>
	</g>
	<g>
		<text transform="matrix(1 0 0 1 3769.7324 1228.1509)" font-family="'FGrotesk-Regular'" font-size="21">Imap</text>
	</g>
	<g>
		<text transform="matrix(1 0 0 1 4130.6235 1228.1509)" font-family="'FGrotesk-Regular'" font-size="21">Alex Carro</text>
	</g>
	<rect x="3223.766" y="954.508" fill="#232021" width="370" height="246.667"/>
	<rect x="3608.766" y="954.508" fill="#232021" width="370" height="246.667"/>
	<rect x="3993.766" y="954.508" fill="#232021" width="370" height="246.667"/>
	<g>
		<text transform="matrix(1 0 0 1 3304.6292 1532.7939)" font-family="'FGrotesk-Regular'" font-size="21">All Those Food Market</text>
	</g>
	<rect x="3223.766" y="1259.151" fill="#232021" width="370" height="246.666"/>
	<text transform="matrix(1 0 0 1 2203.6064 192.8701)"><tspan x="0" y="0" font-family="'FGrotesk-Regular'" font-size="21">Personal</tspan><tspan x="0" y="25.2" font-family="'FGrotesk-Regular'" font-size="21">Commercial</tspan><tspan x="0" y="50.4" font-family="'FGrotesk-Regular'" font-size="21">Exhibitions / Publications</tspan><tspan x="0" y="75.6" font-family="'FGrotesk-Regular'" font-size="21">Contact</tspan></text>
	<text transform="matrix(1 0 0 1 322.207 192.8701)"><tspan x="0" y="0" font-family="'FGrotesk-Regular'" font-size="21">Personal</tspan><tspan x="0" y="25.2" font-family="'FGrotesk-Regular'" font-size="21">Commercial</tspan><tspan x="0" y="50.4" font-family="'FGrotesk-Regular'" font-size="21">Exhibitions / Publications</tspan><tspan x="0" y="75.6" font-family="'FGrotesk-Regular'" font-size="21">Contact</tspan></text>
	<g>
		<rect x="2203.606" y="2499.241" fill="none" width="570" height="298.221"/>
		<text transform="matrix(1 0 0 1 2203.6064 2540.5693)"><tspan x="0" y="0" fill="#232021" font-family="'FGrotesk-Regular'" font-size="48">Riu </tspan><tspan x="90.862" y="0" fill="#232021" font-family="'FGrotesk-Regular'" font-size="48" letter-spacing="-4">av</tspan><tspan x="142.461" y="0" fill="#232021" font-family="'FGrotesk-Regular'" font-size="48">all</tspan><tspan x="0" y="50.4" font-family="'FGrotesk-Regular'" font-size="21">En 1974 se inauguraba el Parque de Atracciones de Bizkaia </tspan><tspan x="0" y="75.6" font-family="'FGrotesk-Regular'" font-size="21">y se cerraba definitivamente en 1990. Hoy, desaparecidas </tspan><tspan x="0" y="100.8" font-family="'FGrotesk-Regular'" font-size="21">atracciones como la noria, la montaña rusa, el Tren </tspan><tspan x="0" y="126" font-family="'FGrotesk-Regular'" font-size="21">Fantasma, el Pulpo o el Gusano Loco, se intuyen. El </tspan><tspan x="0" y="151.2" font-family="'FGrotesk-Regular'" font-size="21">restaurante parece todavía activo, hay bandejas listas para </tspan><tspan x="0" y="176.399" font-family="'FGrotesk-Regular'" font-size="21">servir, sillas desperdigadas con una inquietante lógica… Los </tspan><tspan x="0" y="201.6" font-family="'FGrotesk-Regular'" font-size="21">paisajes de fantasía están siendo ocupados por la maleza. </tspan><tspan x="0" y="226.8" font-family="'FGrotesk-Regular'" font-size="21">Un espacio ideado para la diversión que aún en desuso, sigue </tspan><tspan x="0" y="252" font-family="'FGrotesk-Regular'" font-size="21">vivo con el atractivo de lo abandonado como reclamo.</tspan></text>
	</g>
	<g>
	</g>
	<g>
	</g>
	<g>
	</g>
	<g>
	</g>
	<rect x="1633.61" y="6882.135" width="261.164" height="174.109"/>
	<rect x="2219.271" y="6882.135" width="261.164" height="174.109"/>
	<rect x="2512.101" y="6882.135" width="261.164" height="174.109"/>
	<rect x="1633.61" y="7086.239" width="261.164" height="174.109"/>
	<rect x="1926.44" y="7086.239" width="261.164" height="174.109"/>
	<rect x="2512.101" y="7086.239" width="261.164" height="174.109"/>
	<rect x="1633.61" y="7290.388" width="261.164" height="174.109"/>
	<rect x="1926.44" y="7290.388" width="261.164" height="174.109"/>
	<rect x="1998.985" y="6882.135" width="116.073" height="174.109"/>
	<rect x="2291.816" y="7086.239" width="116.072" height="174.109"/>
	<rect x="1898.602" y="5846.239" fill="#E7E8E9" width="609.961" height="609.962"/>
	<g>
		<g>
			<path fill="#FFFFFF" d="M19.323,17.49c-2.855,0-5.178-3.812-5.178-8.495c0-4.684,2.323-8.495,5.178-8.495
				c2.854,0,5.177,3.811,5.177,8.495C24.5,13.678,22.177,17.49,19.323,17.49z"/>
			<path d="M19.322,1C21.858,1,24,4.662,24,8.995c0,4.333-2.142,7.995-4.678,7.995c-2.535,0-4.677-3.662-4.677-7.995
				C14.645,4.662,16.787,1,19.322,1 M19.322,0c-3.135,0-5.677,4.027-5.677,8.995c0,4.968,2.542,8.995,5.677,8.995
				c3.136,0,5.678-4.027,5.678-8.995C25,4.027,22.458,0,19.322,0L19.322,0z"/>
		</g>
		<g>
			<path d="M21.287,5.777c0-0.485-0.237-0.9-0.585-1.184c0.325-0.23,0.682-0.365,1.062-0.365c1.439,0,2.606,1.848,2.606,4.128
				c0,2.281-1.167,4.129-2.606,4.129c-1.439,0-2.606-1.848-2.606-4.129c0-0.393,0.046-0.765,0.11-1.126
				c0.151,0.049,0.304,0.095,0.471,0.095C20.593,7.326,21.287,6.632,21.287,5.777z"/>
		</g>
		<g>
			<path fill="#FFFFFF" d="M5.678,17.49c-2.855,0-5.178-3.812-5.178-8.495C0.5,4.311,2.823,0.5,5.678,0.5s5.177,3.811,5.177,8.495
				C10.855,13.678,8.533,17.49,5.678,17.49z"/>
			<path d="M5.678,1c2.535,0,4.677,3.662,4.677,7.995c0,4.333-2.142,7.995-4.677,7.995C3.142,16.99,1,13.328,1,8.995
				C1,4.662,3.142,1,5.678,1 M5.678,0C2.542,0,0,4.027,0,8.995c0,4.968,2.542,8.995,5.678,8.995c3.135,0,5.677-4.027,5.677-8.995
				C11.355,4.027,8.813,0,5.678,0L5.678,0z"/>
		</g>
		<g>
			<path d="M7.642,5.777c0-0.485-0.237-0.9-0.585-1.184c0.325-0.23,0.682-0.365,1.062-0.365c1.439,0,2.606,1.848,2.606,4.128
				c0,2.281-1.167,4.129-2.606,4.129s-2.606-1.848-2.606-4.129c0-0.393,0.046-0.765,0.111-1.126
				c0.151,0.049,0.303,0.095,0.471,0.095C6.948,7.326,7.642,6.632,7.642,5.777z"/>
		</g>
	</g>
	<rect x="1807.32" y="3561.073" fill="#E7E8E9" width="792.572" height="528.382"/>
</g>
<g id="Capa_2">
	<g>
	</g>
</g>
</svg>
